<svg fill="none" viewBox="0 0 750 177" height="177" width="750" xmlns="http://www.w3.org/2000/svg"><path fill="#130C34" d="M264.746 58.8665V177H228.644V58.8665H264.746Z"></path><path fill="#130C34" d="M274.774 177V58.8665H311.114V67.117C320.242 60.2368 331.585 56.8643 342.968 56.8643C370.05 56.8643 390.3 77.3614 390.3 104.339V177H353.959V104.339C353.959 104.339 353.959 87.8455 332.425 87.8455C310.89 87.8455 311.114 104.339 311.114 104.339V177H274.774Z"></path><path fill="#130C34" d="M158.446 140.959C171.739 140.959 182.514 130.202 182.514 116.932C182.514 103.662 171.739 92.905 158.446 92.905C145.154 92.905 134.379 103.662 134.379 116.932C134.379 130.202 145.154 140.959 158.446 140.959ZM158.446 177C191.677 177 218.616 150.107 218.616 116.932C218.616 83.7576 191.677 56.8643 158.446 56.8643C125.216 56.8643 98.2769 83.7576 98.2769 116.932C98.2769 150.107 125.216 177 158.446 177Z" clip-rule="evenodd" fill-rule="evenodd"></path><path fill="#130C34" d="M76.3152 134.751C72.0453 138.609 66.3823 140.959 60.1695 140.959C46.8772 140.959 36.1017 130.202 36.1017 116.932C36.1017 103.662 46.8772 92.905 60.1695 92.905C66.4326 92.905 72.1369 95.2932 76.4186 99.2073L101.956 73.7127C91.133 63.2812 76.4019 56.8643 60.1695 56.8643C26.9388 56.8643 0 83.7576 0 116.932C0 150.107 26.9388 177 60.1695 177C76.3516 177 91.0418 170.623 101.856 160.248L76.3152 134.751Z" clip-rule="evenodd" fill-rule="evenodd"></path><path fill="#130C34" d="M702.54 159.462C695.227 165.6 687.694 170.058 679.942 172.835C672.336 175.612 663.706 177 654.052 177C645.276 177 637.012 175.465 629.26 172.396C621.508 169.327 614.779 165.089 609.075 159.681C603.517 154.274 599.055 147.916 595.691 140.609C592.473 133.155 590.864 125.263 590.864 116.932C590.864 108.602 592.4 100.783 595.472 93.475C598.69 86.0213 603.005 79.5907 608.417 74.1831C613.829 68.7755 620.191 64.5372 627.505 61.468C634.964 58.3988 642.936 56.8643 651.42 56.8643C659.903 56.8643 667.728 58.4719 674.896 61.6872C682.063 64.9025 688.206 69.2871 693.325 74.8408C698.591 80.3945 702.687 87.1174 705.612 95.0096C708.537 102.756 710 111.159 710 120.221V128.99H627.285C629.625 134.397 633.282 138.855 638.255 142.362C643.228 145.724 649.079 147.405 655.808 147.405C660.634 147.405 665.022 146.674 668.972 145.212C672.921 143.605 676.285 141.412 679.064 138.635L702.54 159.462ZM650.761 85.8021C644.911 85.8021 639.864 87.4097 635.622 90.625C631.381 93.8404 628.382 98.371 626.627 104.217H675.115C673.213 98.6633 670.069 94.2057 665.681 90.8443C661.439 87.4828 656.466 85.8021 650.761 85.8021Z"></path><path fill="#1EE66E" d="M436.429 45.6516C436.429 55.604 428.348 63.672 418.379 63.672C408.409 63.672 400.328 55.604 400.328 45.6516C400.328 35.6992 408.409 27.6312 418.379 27.6312C428.348 27.6312 436.429 35.6992 436.429 45.6516Z"></path><path fill="#1EE66E" d="M403.448 21.9066C383.572 8.09763 359.405 0 333.339 0C293.217 0 257.591 19.1861 235.194 48.8552H258.463C277.52 29.5764 304.022 17.6199 333.339 17.6199C355.143 17.6199 375.391 24.2338 392.176 35.555C394.37 29.883 398.36 25.1021 403.448 21.9066Z" clip-rule="evenodd" fill-rule="evenodd"></path><path fill="#130C34" d="M400.329 67.1256L400.393 177H436.429L436.429 103.896C436.429 103.896 436.429 87.8346 454.25 87.8346C472.531 87.8346 472.531 103.896 472.531 103.896L472.531 177H508.633V104.764C508.633 104.764 508.633 87.8346 526.86 87.8346C544.734 87.8346 544.734 104.764 544.734 104.764V177H580.836V103.896C580.836 78.342 562.721 56.8643 536.637 56.8643C522.502 56.8643 508.36 63.0271 498.732 73.5096C490.553 63.2573 477.91 56.8643 464.91 56.8643C448.936 56.8643 444.966 59.9984 437.405 66.2668C432.402 70.871 425.719 73.6833 418.378 73.6833C411.506 73.6833 405.21 71.2183 400.329 67.1256Z" clip-rule="evenodd" fill-rule="evenodd"></path><path fill="#130C34" d="M729.584 63.648C726 63.648 722.704 62.784 719.696 61.056C716.752 59.264 714.384 56.864 712.592 53.856C710.864 50.848 710 47.488 710 43.776C710 40.064 710.864 36.736 712.592 33.792C714.384 30.784 716.752 28.416 719.696 26.688C722.704 24.896 726 24 729.584 24C733.296 24 736.624 24.896 739.568 26.688C742.512 28.416 744.848 30.784 746.576 33.792C748.368 36.8 749.264 40.128 749.264 43.776C749.264 47.488 748.368 50.848 746.576 53.856C744.848 56.864 742.512 59.264 739.568 61.056C736.624 62.784 733.296 63.648 729.584 63.648ZM729.584 59.328C732.528 59.328 735.12 58.688 737.36 57.408C739.6 56.064 741.36 54.208 742.64 51.84C743.984 49.472 744.656 46.784 744.656 43.776C744.656 40.768 743.984 38.112 742.64 35.808C741.36 33.44 739.6 31.584 737.36 30.24C735.12 28.896 732.528 28.224 729.584 28.224C726.704 28.224 724.112 28.896 721.808 30.24C719.568 31.584 717.808 33.44 716.528 35.808C715.248 38.112 714.608 40.768 714.608 43.776C714.608 46.784 715.248 49.472 716.528 51.84C717.808 54.144 719.568 55.968 721.808 57.312C724.112 58.656 726.704 59.328 729.584 59.328ZM722.672 52.704V34.656H730.832C732.752 34.656 734.256 35.168 735.344 36.192C736.432 37.216 736.976 38.592 736.976 40.32C736.976 41.408 736.688 42.4 736.112 43.296C735.6 44.192 734.832 44.896 733.808 45.408L738.032 52.704H733.04L729.68 46.368H727.184V52.704H722.672ZM729.968 38.208H727.184V43.104H729.872C731.6 43.104 732.464 42.272 732.464 40.608C732.464 39.84 732.24 39.264 731.792 38.88C731.408 38.432 730.8 38.208 729.968 38.208Z"></path></svg>