<svg xmlns="http://www.w3.org/2000/svg" fill="none" viewBox="0 0 369 637" height="637" width="369">
<path fill="#E9F3FF" d="M238.061 72.5283C260.107 60.3865 276.856 37.624 282.475 27.7606C275.662 24.219 246.375 -1.16706 232.583 -13.4174C204.427 -29.6273 165.688 -36.39 149.838 -37.7452C69.6264 -19.6498 62.8964 39.3313 69.5579 66.5599L60.8114 76.7645L47.9295 76.9521L36.0078 78.1304C27.0146 74.2424 16.4888 78.4738 12.3501 81.0755C-15.5924 90.939 -24.1525 127.334 -24.9398 144.298L-30.4291 195.532L-22.2982 212.052C-7.8399 235.695 -3.95474 257.481 -3.81945 265.419C10.561 264.24 43.0656 245.537 57.5203 236.333C64.5803 234.103 74.2772 192.431 78.2431 171.874C84.8188 160.738 83.4875 140.345 81.9999 131.541L82.5251 122.963L87.4807 130.456L96.1045 128.055C90.7648 120.165 83.7217 117.193 80.8675 116.692L76.2683 111.351C75.6353 101.975 66.4332 87.3902 61.9113 81.2699C67.1377 76.5127 72.6246 74.2184 74.7148 73.6659C80.4378 77.0342 96.6296 82.2714 104.01 84.469C111.838 83.0311 137.257 79.7884 148.988 78.3469C167.172 83.4723 183.742 81.1703 189.755 79.3785C208.83 77.4931 229.907 74.0261 238.061 72.5283Z"></path>
<path fill="#E9F3FF" d="M352.999 311.13C357.1 318.375 362.493 331.964 364.677 337.852L339.082 327.497L280.913 328.729C271.524 330.142 234.121 317.846 216.594 311.521C172.52 294.904 139.769 258.146 128.903 241.844C104.819 204.935 97.6767 151.2 97.1162 128.946C139.053 102.755 193.356 105.873 215.265 110.706C267.847 122.304 314.173 166.054 330.764 186.479C337.862 191.742 348.92 223.125 353.562 238.158C355.99 242.567 354.199 288.643 352.999 311.13Z"></path>
<mask height="468" width="507" y="-90" x="-78" maskUnits="userSpaceOnUse" id="mask0">
<path fill="#385173" d="M238.463 71.7544C260.509 59.6126 277.259 36.8501 282.878 26.9866C276.065 23.4451 246.778 -1.94099 232.986 -14.1913C204.829 -30.4012 166.09 -37.164 150.241 -38.5191C70.0287 -20.4237 63.2987 38.5574 69.9603 65.786L61.2138 75.9905L48.3319 76.1781L36.4101 77.3565C27.417 73.4684 16.8912 77.6999 12.7524 80.3016C-15.19 90.1651 -23.7502 126.56 -24.5374 143.524L-30.0268 194.758L-21.8959 211.278C-7.43756 234.921 -3.5524 256.707 -3.41711 264.645C10.9634 263.466 43.468 244.763 57.9227 235.559C64.9826 233.329 74.6795 191.657 78.6455 171.101C85.2211 159.964 83.8898 139.571 82.4022 130.767L82.9275 122.189L87.8831 129.682L96.5068 127.281C91.1671 119.392 84.124 116.419 81.2699 115.919L76.6707 110.578C76.0377 101.201 66.8356 86.6163 62.3137 80.4959C67.5401 75.7388 73.027 73.4445 75.1171 72.892C80.8401 76.2603 97.032 81.4975 104.413 83.695C112.241 82.2571 137.659 79.0145 149.39 77.573C167.574 82.6984 184.145 80.3963 190.157 78.6046C209.232 76.7192 230.309 73.2522 238.463 71.7544Z"></path>
<path fill="#385173" d="M353.403 310.356C357.504 317.601 362.897 331.189 365.081 337.078L339.486 326.723L281.317 327.954C271.928 329.368 234.526 317.071 216.998 310.746C172.925 294.13 140.174 257.371 129.308 241.069C105.223 204.161 98.081 150.425 97.5205 128.171C139.457 101.98 193.76 105.098 215.669 109.931C268.251 121.53 314.577 165.28 331.168 185.705C338.266 190.968 349.324 222.35 353.966 237.384C356.394 241.793 354.603 287.869 353.403 310.356Z"></path>
</mask>
<g mask="url(#mask0)">
<path stroke-linejoin="round" stroke-width="3" stroke-opacity="0.41" stroke="#D5D3E9" d="M408.584 -9.57754C393.185 -1.36847 363.609 25.548 368.496 67.5416C373.382 109.535 343.806 136.452 328.408 144.661C312.548 153.756 282.493 181.595 289.149 220.184C295.805 258.774 265.934 286.258 250.166 295.176C236.077 302.489 209.66 325.599 216.713 359.531C223.767 393.463 196.244 418.699 181.602 427.076"></path>
<path stroke-linejoin="round" stroke-width="3" stroke-opacity="0.41" stroke="#D5D3E9" d="M391.164 -18.6333C375.473 -10.576 345.488 16.1279 351.076 58.4859C356.663 100.844 326.678 127.548 310.987 135.605C294.836 144.549 264.371 172.174 271.728 211.129C279.086 250.083 248.806 277.354 232.746 286.12C218.386 293.293 191.592 316.206 199.293 350.475C206.994 384.744 179.094 409.784 164.181 418.021"></path>
<path stroke-linejoin="round" stroke-width="3" stroke-opacity="0.41" stroke="#D5D3E9" d="M371.81 -28.6948C356.119 -20.6376 326.134 6.06637 331.722 48.4244C337.31 90.7824 307.325 117.486 291.634 125.544C275.482 134.487 245.018 162.113 252.375 201.067C259.732 240.021 229.452 267.292 213.393 276.059C199.033 283.232 172.238 306.145 179.94 340.413C187.641 374.682 159.741 399.723 144.828 407.959"></path>
<path stroke-linejoin="round" stroke-width="3" stroke-opacity="0.41" stroke="#D5D3E9" d="M354.002 -37.9511C338.311 -29.8939 308.326 -3.18998 313.913 39.168C319.501 81.526 289.516 108.23 273.825 116.287C257.673 125.231 227.209 152.857 234.566 191.811C241.923 230.765 211.644 258.036 195.584 266.802C181.224 273.975 154.43 296.888 162.131 331.157C169.832 365.426 141.932 390.466 127.019 398.703"></path>
<path stroke-linejoin="round" stroke-width="3" stroke-opacity="0.41" stroke="#D5D3E9" d="M336.582 -47.0062C321.183 -38.7972 291.607 -11.8807 296.494 30.1129C301.381 72.1065 271.805 99.023 256.406 107.232C240.546 116.328 210.491 144.166 217.147 182.756C223.803 221.345 193.932 248.829 178.164 257.747C164.075 265.061 137.658 288.17 144.711 322.102C151.765 356.034 124.242 381.271 109.6 389.648"></path>
<path stroke-linejoin="round" stroke-width="3" stroke-opacity="0.41" stroke="#D5D3E9" d="M317.615 -56.8664C301.924 -48.8092 271.939 -22.1053 277.527 20.2527C283.114 62.6107 253.129 89.3147 237.438 97.3719C221.287 106.316 190.823 133.941 198.18 172.895C205.537 211.85 175.257 239.121 159.197 247.887C144.837 255.06 118.043 277.973 125.744 312.242C133.446 346.511 105.545 371.551 90.6325 379.788"></path>
<path stroke-linejoin="round" stroke-width="3" stroke-opacity="0.41" stroke="#D5D3E9" d="M296.324 -67.9337C280.926 -59.7247 251.35 -32.8082 256.236 9.18541C261.123 51.179 231.547 78.0955 216.148 86.3046C200.288 95.4 170.233 123.238 176.889 161.828C183.545 200.418 153.674 227.902 137.907 236.82C123.817 244.133 97.4004 267.242 104.454 301.174C111.507 335.107 83.9847 360.343 69.3419 368.72"></path>
<path stroke-linejoin="round" stroke-width="3" stroke-opacity="0.41" stroke="#D5D3E9" d="M278.904 -76.989C263.213 -68.9318 233.228 -42.2278 238.816 0.130176C244.403 42.4882 214.419 69.1921 198.728 77.2493C182.576 86.193 152.112 113.819 159.469 152.773C166.826 191.727 136.546 218.998 120.486 227.765C106.127 234.937 79.3321 257.85 87.0334 292.119C94.7346 326.388 66.8344 351.428 51.9216 359.665"></path>
<path stroke-linejoin="round" stroke-width="3" stroke-opacity="0.41" stroke="#D5D3E9" d="M259.549 -87.0505C243.858 -78.9933 213.873 -52.2893 219.46 -9.93135C225.048 32.4267 195.063 59.1306 179.372 67.1878C163.22 76.1314 132.756 103.757 140.113 142.711C147.47 181.666 117.19 208.937 101.131 217.703C86.771 224.876 59.9767 247.789 67.6779 282.058C75.3791 316.327 47.4789 341.367 32.5661 349.603"></path>
<path stroke-linejoin="round" stroke-width="3" stroke-opacity="0.41" stroke="#D5D3E9" d="M241.742 -96.3066C226.051 -88.2494 196.066 -61.5455 201.654 -19.1875C207.241 23.1705 177.256 49.8745 161.565 57.9317C145.414 66.8753 114.949 94.5011 122.307 133.455C129.664 172.409 99.3838 199.681 83.3242 208.447C68.9644 215.62 42.17 238.533 49.8713 272.802C57.5725 307.07 29.6723 332.111 14.7595 340.347"></path>
<path stroke-linejoin="round" stroke-width="3" stroke-opacity="0.41" stroke="#D5D3E9" d="M224.322 -105.362C208.924 -97.1527 179.348 -70.2361 184.234 -28.2426C189.121 13.751 159.545 40.6675 144.146 48.8766C128.286 57.9721 98.231 85.8105 104.887 124.4C111.543 162.99 81.6722 190.474 65.9047 199.392C51.8148 206.705 25.3985 229.814 32.4517 263.746C39.505 297.679 11.9827 322.915 -2.66005 331.292"></path>
<path stroke-linejoin="round" stroke-width="3" stroke-opacity="0.41" stroke="#D5D3E9" d="M205.355 -115.222C189.664 -107.165 159.679 -80.4607 165.267 -38.1027C170.855 4.25527 140.87 30.9592 125.179 39.0164C109.027 47.9601 78.5628 75.5859 85.9199 114.54C93.277 153.494 62.9971 180.765 46.9375 189.532C32.5777 196.705 5.78332 219.617 13.4845 253.886C21.1858 288.155 -6.71446 313.195 -21.6272 321.432"></path>
<path stroke-linejoin="round" stroke-width="3" stroke-opacity="0.41" stroke="#D5D3E9" d="M187.936 -124.276C172.537 -116.067 142.961 -89.1507 147.847 -47.1571C152.734 -5.16356 123.158 21.753 107.759 29.962C91.8996 39.0575 61.8443 66.8959 68.5003 105.486C75.1564 144.075 45.2854 171.559 29.518 180.477C15.4281 187.79 -10.9882 210.9 -3.93499 244.832C3.11827 278.764 -24.404 304.001 -39.0468 312.378"></path>
<path stroke-linejoin="round" stroke-width="3" stroke-opacity="0.41" stroke="#D5D3E9" d="M170.515 -133.332C154.824 -125.275 124.839 -98.5711 130.427 -56.2131C136.015 -13.8551 106.03 12.8488 90.3389 20.9061C74.1871 29.8497 43.7229 57.4755 51.08 96.4296C58.4371 135.384 28.1573 162.655 12.0977 171.421C-2.26217 178.594 -29.0565 201.507 -21.3553 235.776C-13.6541 270.045 -41.5543 295.085 -56.4671 303.322"></path>
<path stroke-linejoin="round" stroke-width="3" stroke-opacity="0.41" stroke="#D5D3E9" d="M151.162 -143.393C135.471 -135.336 105.486 -108.632 111.074 -66.2741C116.661 -23.9161 86.6763 2.78781 70.9854 10.845C54.8336 19.7887 24.3694 47.4145 31.7265 86.3686C39.0836 125.323 8.80373 152.594 -7.25585 161.36C-21.6157 168.533 -48.41 191.446 -40.7088 225.715C-33.0076 259.984 -60.9078 285.024 -75.8206 293.261"></path>
<path stroke-linejoin="round" stroke-width="3" stroke-opacity="0.41" stroke="#D5D3E9" d="M133.353 -152.65C117.662 -144.593 87.6773 -117.889 93.265 -75.5307C98.8527 -33.1727 68.8677 -6.46878 53.1768 1.58843C37.025 10.5321 6.56081 38.1579 13.9179 77.112C21.275 116.066 -9.00486 143.337 -25.0644 152.104C-39.4243 159.277 -66.2186 182.189 -58.5174 216.458C-50.8162 250.727 -78.7164 275.768 -93.6292 284.004"></path>
<path stroke-linejoin="round" stroke-width="3" stroke-opacity="0.41" stroke="#D5D3E9" d="M115.932 -161.705C100.533 -153.496 70.9569 -126.58 75.8435 -84.5861C80.7301 -42.5925 51.1541 -15.676 35.7553 -7.46693C19.8957 1.62856 -10.1596 29.467 -3.50356 68.0566C3.15247 106.646 -26.7185 134.13 -42.4859 143.048C-56.5758 150.362 -82.9921 173.471 -75.9389 207.403C-68.8856 241.335 -96.4079 266.572 -111.051 274.949"></path>
<path stroke-linejoin="round" stroke-width="3" stroke-opacity="0.41" stroke="#D5D3E9" d="M96.9666 -171.565C81.2756 -163.508 51.2906 -136.804 56.8783 -94.4462C62.466 -52.0882 32.481 -25.3843 16.79 -17.3271C0.638303 -8.38346 -29.8259 19.2424 -22.4688 58.1965C-15.1117 97.1506 -45.3916 124.422 -61.4512 133.188C-75.811 140.361 -102.605 163.274 -94.9041 197.543C-87.2029 231.812 -115.103 256.852 -130.016 265.089"></path>
<path stroke-linejoin="round" stroke-width="3" stroke-opacity="0.41" stroke="#D5D3E9" d="M520.07 48.3751C504.672 56.5842 475.096 83.5007 479.982 125.494C484.869 167.488 455.293 194.404 439.894 202.613C424.034 211.709 393.979 239.547 400.635 278.137C407.291 316.727 377.42 344.21 361.653 353.129C347.563 360.442 321.147 383.551 328.2 417.483C335.253 451.415 307.731 476.652 293.088 485.029"></path>
<path stroke-linejoin="round" stroke-width="3" stroke-opacity="0.41" stroke="#D5D3E9" d="M502.65 39.3196C486.959 47.3768 456.974 74.0808 462.562 116.439C468.15 158.797 438.165 185.501 422.474 193.558C406.322 202.502 375.858 230.127 383.215 269.081C390.572 308.036 360.292 335.307 344.232 344.073C329.873 351.246 303.078 374.159 310.779 408.428C318.481 442.697 290.58 467.737 275.668 475.974"></path>
<path stroke-linejoin="round" stroke-width="3" stroke-opacity="0.41" stroke="#D5D3E9" d="M483.295 29.2583C467.604 37.3156 437.619 64.0195 443.206 106.377C448.794 148.735 418.809 175.439 403.118 183.497C386.966 192.44 356.502 220.066 363.859 259.02C371.216 297.974 340.937 325.246 324.877 334.012C310.517 341.185 283.723 364.098 291.424 398.367C299.125 432.635 271.225 457.676 256.312 465.912"></path>
<path stroke-linejoin="round" stroke-width="3" stroke-opacity="0.41" stroke="#D5D3E9" d="M465.488 20.002C449.797 28.0592 419.812 54.7631 425.4 97.1211C430.987 139.479 401.002 166.183 385.312 174.24C369.16 183.184 338.696 210.81 346.053 249.764C353.41 288.718 323.13 315.989 307.07 324.756C292.71 331.928 265.916 354.841 273.617 389.11C281.319 423.379 253.418 448.419 238.506 456.656"></path>
<path stroke-linejoin="round" stroke-width="3" stroke-opacity="0.41" stroke="#D5D3E9" d="M448.069 10.9466C432.67 19.1557 403.094 46.0722 407.98 88.0658C412.867 130.059 383.291 156.976 367.892 165.185C352.032 174.28 321.977 202.119 328.633 240.708C335.289 279.298 305.418 306.782 289.651 315.7C275.561 323.013 249.145 346.123 256.198 380.055C263.251 413.987 235.729 439.224 221.086 447.601"></path>
<path stroke-linejoin="round" stroke-width="3" stroke-opacity="0.41" stroke="#D5D3E9" d="M429.101 1.08671C413.41 9.14393 383.425 35.8479 389.013 78.2059C394.601 120.564 364.616 147.268 348.925 155.325C332.773 164.269 302.309 191.894 309.666 230.849C317.023 269.803 286.743 297.074 270.684 305.84C256.324 313.013 229.529 335.926 237.231 370.195C244.932 404.464 217.032 429.504 202.119 437.741"></path>
</g>
<path fill="#E9F3FF" d="M83.2725 360.476C86.0829 338.79 78.73 315.363 74.7022 306.36C68.7218 309.317 35.8916 316.808 20.224 320.184C-5.59451 331.595 -30.2253 355.272 -39.3135 365.685C-67.8176 431.194 -29.9358 466.196 -7.43181 475.508L-4.77092 486.878L-11.2539 496.003L-16.5495 504.963C-23.8922 509.27 -26.3313 518.82 -26.6329 523.056C-34.0676 547.705 -12.9554 572.392 -1.46999 581.654L31.6195 611.809L47.3722 614.592C71.367 616.599 88.631 625.063 94.2637 629.044C100.822 618.36 104.404 585.975 105.375 571.118C107.437 565.025 83.2098 536.832 70.8387 523.497C66.41 513.17 51.4337 503.632 44.4992 500.154L38.7571 495.381L46.5533 495.755L49.2985 488.479C41.0274 488.17 35.3274 491.58 33.5113 493.323L27.4064 493.804C20.5098 489.433 5.56292 488.394 -1.04846 488.42C-1.69893 482.315 -0.489582 477.291 0.196405 475.543C5.49571 473.261 17.4803 464.602 22.8102 460.558C25.8219 454.333 36.601 434.853 41.6141 425.891C54.5433 415.778 61.4384 402.983 63.2698 397.849C71.7428 383.512 80.1354 366.96 83.2725 360.476Z"></path>
<path fill="#E9F3FF" d="M309.518 402.435C316.702 403.281 328.995 406.478 334.243 407.971L313.844 420.593L284.838 461.994C281.008 469.3 253.185 489.2 239.752 498.237C205.476 520.594 162.897 524.673 145.891 523.918C107.657 521.847 66.3289 499.261 50.444 488.227C53.6212 445.387 83.6893 408.929 98.3261 396.055C133.455 365.158 187.904 355.154 210.738 354.014C218.071 351.742 245.744 360.105 258.664 364.571C263.001 365.133 294.374 390.048 309.518 402.435Z"></path>
<mask height="366" width="460" y="295" x="-108" maskUnits="userSpaceOnUse" id="mask1">
<path fill="#385173" d="M82.9366 359.796C85.747 338.11 78.394 314.683 74.3663 305.681C68.3858 308.637 35.5556 316.128 19.8881 319.505C-5.93045 330.915 -30.5613 354.593 -39.6494 365.006C-68.1536 430.515 -30.2717 465.516 -7.76775 474.829L-5.10686 486.198L-11.5898 495.323L-16.8854 504.284C-24.2282 508.59 -26.6672 518.14 -26.9689 522.377C-34.4036 547.025 -13.2914 571.712 -1.80593 580.975L31.2835 611.129L47.0362 613.913C71.0311 615.92 88.2951 624.383 93.9277 628.364C100.486 617.68 104.068 585.296 105.039 570.439C107.101 564.346 82.8738 536.152 70.5027 522.817C66.0741 512.491 51.0978 502.952 44.1632 499.474L38.4212 494.702L46.2174 495.076L48.9626 487.799C40.6914 487.49 34.9915 490.9 33.1754 492.644L27.0705 493.125C20.1739 488.754 5.22698 487.714 -1.3844 487.741C-2.03487 481.635 -0.82552 476.612 -0.139533 474.863C5.15978 472.582 17.1444 463.923 22.4743 459.878C25.486 453.653 36.265 434.174 41.2781 425.212C54.2073 415.099 61.1025 402.303 62.9339 397.169C71.4069 382.833 79.7994 366.28 82.9366 359.796Z"></path>
<path fill="#385173" d="M309.182 401.755C316.366 402.601 328.659 405.798 333.907 407.291L313.508 419.913L284.502 461.314C280.672 468.62 252.849 488.52 239.416 497.557C205.14 519.914 162.561 523.993 145.556 523.239C107.321 521.167 65.993 498.581 50.108 487.547C53.2853 444.707 83.3533 408.249 97.9902 395.375C133.119 364.478 187.568 354.474 210.402 353.334C217.736 351.062 245.409 359.426 258.328 363.892C262.665 364.454 294.038 389.368 309.182 401.755Z"></path>
</mask>
<g mask="url(#mask1)">
<path stroke-linejoin="round" stroke-width="3" stroke-opacity="0.41" stroke="#D5D3E9" d="M113.285 198.802C111.131 213.81 114.809 248.359 146.75 266.497C178.691 284.635 182.369 319.184 180.216 334.192C178.447 349.977 182.525 385.336 212.989 400.486C243.453 415.636 247.377 450.683 245.532 466.313C243.422 479.943 246.055 510.323 273.458 522.803C300.861 535.283 304.417 567.531 302.769 582.094"></path>
<path stroke-linejoin="round" stroke-width="3" stroke-opacity="0.41" stroke="#D5D3E9" d="M97.9936 206.362C95.5837 221.496 98.9031 256.223 131.459 274.057C164.015 291.89 167.335 326.617 164.925 341.751C162.9 357.664 166.619 393.2 197.698 408.045C228.777 422.891 232.343 458.116 230.241 473.873C227.894 487.62 230.195 518.164 258.167 530.363C286.139 542.561 289.363 574.973 287.478 589.654"></path>
<path stroke-linejoin="round" stroke-width="3" stroke-opacity="0.41" stroke="#D5D3E9" d="M81.0053 214.761C78.5955 229.895 81.9148 264.622 114.471 282.456C147.027 300.289 150.346 335.016 147.937 350.15C145.911 366.063 149.631 401.599 180.71 416.445C211.789 431.29 215.354 466.515 213.252 482.272C210.906 496.019 213.207 526.563 241.179 538.762C269.151 550.961 272.375 583.372 270.49 598.053"></path>
<path stroke-linejoin="round" stroke-width="3" stroke-opacity="0.41" stroke="#D5D3E9" d="M65.3764 222.488C62.9666 237.622 66.2859 272.349 98.8421 290.182C131.398 308.016 134.718 342.743 132.308 357.877C130.283 373.79 134.002 409.326 165.081 424.171C196.16 439.017 199.726 474.242 197.623 489.999C195.277 503.746 197.578 534.29 225.55 546.489C253.522 558.687 256.746 591.099 254.861 605.78"></path>
<path stroke-linejoin="round" stroke-width="3" stroke-opacity="0.41" stroke="#D5D3E9" d="M50.0834 230.047C47.93 245.055 51.6083 279.604 83.549 297.742C115.49 315.88 119.168 350.429 117.015 365.437C115.246 381.222 119.324 416.581 149.788 431.731C180.252 446.881 184.176 481.928 182.33 497.558C180.221 511.188 182.854 541.569 210.257 554.048C237.66 566.528 241.216 598.776 239.568 613.34"></path>
<path stroke-linejoin="round" stroke-width="3" stroke-opacity="0.41" stroke="#D5D3E9" d="M33.4331 238.279C31.0232 253.413 34.3425 288.14 66.8987 305.973C99.4549 323.807 102.774 358.534 100.364 373.668C98.3391 389.58 102.059 425.117 133.138 439.962C164.217 454.808 167.782 490.033 165.68 505.789C163.334 519.537 165.634 550.081 193.607 562.28C221.579 574.478 224.802 606.89 222.918 621.571"></path>
<path stroke-linejoin="round" stroke-width="3" stroke-opacity="0.41" stroke="#D5D3E9" d="M14.7455 247.518C12.5921 262.526 16.2704 297.075 48.2112 315.213C80.1519 333.35 83.8302 367.9 81.6768 382.907C79.908 398.693 83.9864 434.052 114.45 449.202C144.914 464.351 148.838 499.399 146.993 515.029C144.883 528.659 147.516 559.039 174.919 571.519C202.322 583.999 205.878 616.246 204.23 630.81"></path>
<path stroke-linejoin="round" stroke-width="3" stroke-opacity="0.41" stroke="#D5D3E9" d="M-0.54546 255.076C-2.95532 270.21 0.364003 304.937 32.9202 322.771C65.4764 340.604 68.7957 375.331 66.3858 390.466C64.3606 406.378 68.08 441.914 99.1591 456.76C130.238 471.605 133.804 506.83 131.702 522.587C129.355 536.334 131.656 566.879 159.628 579.077C187.6 591.276 190.824 623.687 188.939 638.368"></path>
<path stroke-linejoin="round" stroke-width="3" stroke-opacity="0.41" stroke="#D5D3E9" d="M-17.5357 263.475C-19.9456 278.609 -16.6262 313.336 15.93 331.17C48.4861 349.003 51.8055 383.73 49.3956 398.865C47.3704 414.777 51.0898 450.313 82.1689 465.159C113.248 480.004 116.813 515.229 114.711 530.986C112.365 544.733 114.666 575.277 142.638 587.476C170.61 599.675 173.834 632.086 171.949 646.767"></path>
<path stroke-linejoin="round" stroke-width="3" stroke-opacity="0.41" stroke="#D5D3E9" d="M-33.1666 271.203C-35.5764 286.337 -32.2571 321.064 0.299094 338.897C32.8553 356.731 36.1746 391.458 33.7647 406.592C31.7395 422.504 35.4589 458.041 66.538 472.886C97.6171 487.732 101.183 522.957 99.0805 538.713C96.7343 552.461 99.0349 583.005 127.007 595.204C154.979 607.402 158.203 639.814 156.318 654.495"></path>
<path stroke-linejoin="round" stroke-width="3" stroke-opacity="0.41" stroke="#D5D3E9" d="M-48.4557 278.762C-50.6091 293.769 -46.9308 328.319 -14.99 346.456C16.9508 364.594 20.6291 399.144 18.4756 414.151C16.7068 429.937 20.7852 465.296 51.2489 480.445C81.7126 495.595 85.6371 530.643 83.7913 546.273C81.6821 559.903 84.3146 590.283 111.718 602.763C139.121 615.242 142.677 647.49 141.029 662.054"></path>
<path stroke-linejoin="round" stroke-width="3" stroke-opacity="0.41" stroke="#D5D3E9" d="M-65.108 286.993C-67.5178 302.127 -64.1985 336.854 -31.6423 354.688C0.913873 372.521 4.2332 407.248 1.82334 422.382C-0.201869 438.295 3.5175 473.831 34.5966 488.676C65.6757 503.522 69.2412 538.747 67.139 554.504C64.7928 568.251 67.0935 598.795 95.0656 610.994C123.038 623.192 126.261 655.604 124.377 670.285"></path>
<path stroke-linejoin="round" stroke-width="3" stroke-opacity="0.41" stroke="#D5D3E9" d="M-80.399 294.552C-82.5525 309.56 -78.8742 344.109 -46.9334 362.247C-14.9926 380.385 -11.3143 414.934 -13.4677 429.942C-15.2365 445.727 -11.1582 481.086 19.3055 496.236C49.7692 511.386 53.6937 546.433 51.848 562.063C49.7388 575.693 52.3712 606.073 79.7745 618.553C107.178 631.033 110.733 663.281 109.086 677.844"></path>
<path stroke-linejoin="round" stroke-width="3" stroke-opacity="0.41" stroke="#D5D3E9" d="M-95.69 302.112C-98.0999 317.246 -94.7805 351.973 -62.2243 369.806C-29.6682 387.64 -26.3488 422.367 -28.7587 437.501C-30.7839 453.413 -27.0645 488.95 4.01456 503.795C35.0937 518.641 38.6592 553.866 36.557 569.622C34.2108 583.37 36.5114 613.914 64.4835 626.113C92.4556 638.311 95.6794 670.723 93.7948 685.404"></path>
<path stroke-linejoin="round" stroke-width="3" stroke-opacity="0.41" stroke="#D5D3E9" d="M-112.68 310.511C-115.09 325.645 -111.771 360.372 -79.2146 378.205C-46.6584 396.039 -43.3391 430.766 -45.7489 445.9C-47.7741 461.813 -44.0548 497.349 -12.9757 512.194C18.1034 527.04 21.6689 562.265 19.5668 578.022C17.2206 591.769 19.5212 622.313 47.4933 634.512C75.4654 646.71 78.6892 679.122 76.8046 693.803"></path>
<path stroke-linejoin="round" stroke-width="3" stroke-opacity="0.41" stroke="#D5D3E9" d="M-128.311 318.238C-130.721 333.372 -127.402 368.099 -94.8454 385.933C-62.2893 403.766 -58.9699 438.493 -61.3798 453.627C-63.405 469.54 -59.6856 505.076 -28.6065 519.922C2.47256 534.767 6.03806 569.992 3.93592 585.749C1.58972 599.496 3.89034 630.04 31.8624 642.239C59.8345 654.438 63.0583 686.849 61.1737 701.53"></path>
<path stroke-linejoin="round" stroke-width="3" stroke-opacity="0.41" stroke="#D5D3E9" d="M-143.602 325.797C-145.756 340.805 -142.077 375.354 -110.136 393.492C-78.1957 411.629 -74.5174 446.179 -76.6709 461.187C-78.4396 476.972 -74.3613 512.331 -43.8976 527.481C-13.4339 542.63 -9.50942 577.678 -11.3551 593.308C-13.4643 606.938 -10.8319 637.318 16.5714 649.798C43.9747 662.278 47.5303 694.525 45.8827 709.089"></path>
<path stroke-linejoin="round" stroke-width="3" stroke-opacity="0.41" stroke="#D5D3E9" d="M-160.252 334.029C-162.662 349.163 -159.343 383.89 -126.787 401.723C-94.2307 419.557 -90.9113 454.284 -93.3212 469.418C-95.3464 485.33 -91.627 520.867 -60.5479 535.712C-29.4688 550.558 -25.9033 585.783 -28.0055 601.539C-30.3517 615.287 -28.0511 645.831 -0.0789789 658.03C27.8931 670.228 31.1169 702.64 29.2323 717.321"></path>
<path stroke-linejoin="round" stroke-width="3" stroke-opacity="0.41" stroke="#D5D3E9" d="M211.148 150.424C208.994 165.432 212.673 199.981 244.614 218.119C276.554 236.256 280.233 270.806 278.079 285.813C276.31 301.599 280.389 336.958 310.852 352.108C341.316 367.257 345.241 402.305 343.395 417.935C341.286 431.565 343.918 461.945 371.321 474.425C398.725 486.905 402.28 519.152 400.633 533.716"></path>
<path stroke-linejoin="round" stroke-width="3" stroke-opacity="0.41" stroke="#D5D3E9" d="M195.857 157.982C193.447 173.116 196.766 207.843 229.323 225.677C261.879 243.51 265.198 278.237 262.788 293.372C260.763 309.284 264.482 344.82 295.561 359.666C326.641 374.511 330.206 409.736 328.104 425.493C325.758 439.24 328.058 469.785 356.03 481.983C384.002 494.182 387.226 526.593 385.342 541.274"></path>
<path stroke-linejoin="round" stroke-width="3" stroke-opacity="0.41" stroke="#D5D3E9" d="M178.867 166.381C176.457 181.516 179.776 216.243 212.332 234.076C244.888 251.909 248.208 286.636 245.798 301.771C243.773 317.683 247.492 353.219 278.571 368.065C309.65 382.91 313.216 418.135 311.114 433.892C308.767 447.639 311.068 478.184 339.04 490.382C367.012 502.581 370.236 534.993 368.351 549.674"></path>
<path stroke-linejoin="round" stroke-width="3" stroke-opacity="0.41" stroke="#D5D3E9" d="M163.236 174.109C160.826 189.243 164.145 223.97 196.701 241.803C229.258 259.637 232.577 294.364 230.167 309.498C228.142 325.41 231.861 360.947 262.94 375.792C294.019 390.638 297.585 425.863 295.483 441.619C293.137 455.367 295.437 485.911 323.409 498.11C351.381 510.308 354.605 542.72 352.721 557.401"></path>
<path stroke-linejoin="round" stroke-width="3" stroke-opacity="0.41" stroke="#D5D3E9" d="M147.945 181.668C145.791 196.675 149.47 231.225 181.41 249.363C213.351 267.5 217.029 302.05 214.876 317.057C213.107 332.843 217.186 368.202 247.649 383.352C278.113 398.501 282.037 433.549 280.192 449.179C278.083 462.809 280.715 493.189 308.118 505.669C335.522 518.149 339.077 550.396 337.43 564.96"></path>
<path stroke-linejoin="round" stroke-width="3" stroke-opacity="0.41" stroke="#D5D3E9" d="M131.296 189.899C128.886 205.033 132.206 239.76 164.762 257.594C197.318 275.427 200.637 310.154 198.228 325.288C196.202 341.201 199.922 376.737 231.001 391.582C262.08 406.428 265.645 441.653 263.543 457.41C261.197 471.157 263.498 501.701 291.47 513.9C319.442 526.098 322.666 558.51 320.781 573.191"></path>
</g>
</svg>
